<?xml version="1.0" standalone="no"?>
<!DOCTYPE svg PUBLIC "-//W3C//DTD SVG 20010904//EN"
 "http://www.w3.org/TR/2001/REC-SVG-20010904/DTD/svg10.dtd">
<svg version="1.0" xmlns="http://www.w3.org/2000/svg"
 width="1920.000000pt" height="1920.000000pt" viewBox="0 0 1920.000000 1920.000000"
 preserveAspectRatio="xMidYMid meet">
<metadata>
Created by potrace 1.14, written by Peter Selinger 2001-2017
</metadata>
<g transform="translate(0.000000,1920.000000) scale(0.100000,-0.100000)"
fill="#000000" stroke="none">
<path d="M8728 19195 c-2 -2 -70 -6 -153 -9 -82 -4 -163 -8 -180 -11 -16 -2
-66 -6 -110 -10 -148 -11 -250 -21 -292 -29 -10 -2 -46 -7 -78 -11 -73 -8
-241 -33 -275 -40 -14 -3 -38 -7 -55 -10 -16 -3 -41 -8 -55 -10 -55 -11 -76
-15 -105 -21 -16 -3 -59 -12 -95 -20 -36 -9 -76 -18 -89 -20 -13 -3 -81 -21
-150 -40 -69 -19 -135 -37 -146 -39 -11 -3 -83 -25 -160 -50 -132 -43 -165
-55 -333 -121 -171 -68 -383 -169 -567 -272 -96 -53 -360 -222 -401 -255 -10
-9 -48 -37 -84 -64 -36 -26 -76 -57 -90 -69 -14 -12 -63 -54 -110 -94 -126
-108 -172 -141 -310 -220 -281 -163 -356 -231 -429 -393 -16 -34 -48 -102 -71
-152 -60 -126 -174 -399 -222 -530 -52 -144 -137 -391 -142 -418 -3 -12 -14
-51 -26 -87 -50 -157 -148 -565 -174 -725 -3 -16 -12 -70 -20 -120 -8 -49 -18
-110 -21 -135 -3 -25 -8 -56 -10 -70 -2 -14 -6 -45 -9 -70 -3 -25 -7 -70 -11
-100 -12 -110 -14 -137 -22 -260 -15 -234 -8 -776 12 -939 2 -14 6 -55 10 -91
30 -303 102 -664 196 -989 103 -354 221 -645 420 -1037 163 -320 218 -458 235
-595 3 -24 7 -50 10 -58 2 -7 7 -72 10 -145 8 -225 17 -264 73 -327 65 -75
179 -126 408 -185 130 -33 331 -80 387 -90 16 -3 32 -7 36 -9 3 -2 17 -6 31
-9 13 -2 47 -10 74 -16 28 -6 57 -13 65 -15 8 -2 62 -13 120 -25 125 -26 136
-29 175 -36 17 -3 71 -14 120 -24 50 -11 101 -21 115 -24 14 -3 50 -10 80 -16
30 -6 69 -14 85 -16 17 -3 53 -9 80 -14 28 -5 64 -12 80 -15 80 -13 203 -35
225 -40 55 -11 137 -25 170 -29 19 -3 64 -9 100 -15 36 -5 85 -13 110 -16 25
-3 56 -8 70 -10 14 -3 41 -7 60 -10 19 -3 46 -7 60 -10 14 -2 50 -7 80 -11 30
-3 56 -7 58 -9 5 -5 -101 -75 -213 -140 -306 -179 -633 -421 -954 -710 -69
-61 -417 -408 -492 -490 -169 -184 -394 -461 -557 -685 -94 -129 -298 -429
-337 -497 -10 -18 -23 -29 -28 -26 -15 9 -334 11 -381 2 -23 -4 -63 -10 -91
-13 -68 -9 -168 -42 -239 -80 -52 -27 -176 -132 -176 -149 0 -4 -15 -30 -33
-59 -46 -74 -91 -180 -113 -268 -28 -113 -26 -380 4 -451 6 -15 16 -46 22 -70
18 -67 111 -249 159 -310 108 -137 280 -291 471 -419 104 -70 363 -256 385
-276 35 -33 129 -101 160 -117 154 -78 454 -55 800 62 135 45 135 45 136 104
0 28 2 72 4 97 1 25 5 104 9 175 9 167 15 285 21 360 2 33 7 128 11 210 3 83
8 161 9 174 2 23 15 35 138 143 32 28 75 67 96 87 21 20 50 45 64 56 14 11 45
38 69 60 38 36 255 229 347 310 19 16 42 37 51 45 9 8 70 63 136 122 l121 107
16 -72 c18 -78 93 -433 101 -482 11 -57 17 -88 30 -150 14 -67 15 -57 -33
-360 -11 -71 -23 -148 -26 -170 -3 -22 -8 -49 -10 -61 -2 -11 -7 -45 -11 -75
-3 -30 -8 -57 -10 -60 -2 -4 -6 -31 -9 -60 -4 -30 -8 -60 -11 -67 -2 -8 -7
-37 -10 -65 -10 -96 -12 -112 -38 -297 -25 -180 -30 -229 -41 -375 -3 -38 -8
-83 -10 -100 -19 -144 -25 -639 -8 -720 7 -33 33 -154 59 -270 25 -115 48
-219 50 -230 8 -39 12 -61 38 -175 14 -63 39 -180 57 -260 17 -80 33 -154 36
-165 2 -11 6 -30 9 -42 2 -12 10 -48 17 -80 l14 -58 -34 -46 c-41 -58 -81
-143 -88 -192 -11 -67 37 -139 167 -249 l28 -23 -56 -65 c-81 -93 -238 -254
-323 -330 -41 -36 -79 -70 -86 -77 -21 -20 -207 -167 -270 -213 -33 -24 -62
-46 -65 -50 -3 -3 -39 -28 -80 -55 -41 -28 -77 -53 -80 -56 -8 -9 -248 -162
-391 -249 -121 -74 -206 -148 -281 -246 -12 -16 -25 -31 -28 -34 -22 -21 -133
-167 -207 -273 l-90 -127 3 -78 c1 -42 5 -95 9 -117 17 -99 72 -199 143 -260
l35 -30 736 -1 736 -1 85 76 c77 69 154 139 184 166 6 6 81 74 166 150 85 77
160 144 166 150 6 5 48 44 94 85 46 41 104 94 129 117 25 23 50 38 56 35 6 -4
118 -78 249 -165 l238 -159 122 6 c66 3 135 8 151 11 287 50 485 132 693 289
l54 40 -7 65 c-4 36 -8 68 -10 71 -2 3 -6 27 -9 53 -8 69 -52 282 -87 422 -64
258 -165 576 -289 915 -52 141 -56 160 -37 196 19 38 46 117 62 180 12 51 12
119 1 181 -6 31 -78 241 -108 313 -15 36 -16 62 -4 170 16 150 64 308 131 434
88 167 227 319 424 467 l75 57 74 -45 c241 -142 449 -389 549 -652 46 -120 65
-219 68 -346 2 -105 -1 -135 -26 -235 -59 -232 -58 -310 1 -490 6 -19 16 -45
22 -57 9 -18 0 -50 -50 -180 -101 -266 -183 -523 -261 -824 -11 -41 -22 -86
-25 -100 -3 -13 -18 -87 -35 -164 -30 -146 -38 -187 -47 -245 -2 -19 -7 -46
-9 -59 -19 -105 -18 -110 11 -149 79 -103 205 -203 342 -272 143 -71 294 -115
550 -158 l103 -18 58 56 c32 30 66 61 76 69 39 31 350 151 392 151 24 0 256
-147 353 -225 144 -115 274 -267 361 -422 l24 -43 801 0 c751 0 802 1 816 18
29 34 97 158 113 207 22 62 28 182 12 234 -10 33 -296 399 -522 668 -28 33
-54 50 -175 116 -315 171 -583 341 -784 501 -115 90 -319 292 -388 381 l-45
60 24 35 c14 19 41 68 61 109 54 112 49 184 -24 396 -62 178 -61 168 -27 212
31 41 93 139 93 149 0 3 11 28 25 55 45 91 100 282 129 454 19 115 22 139 41
320 20 197 27 783 12 990 -14 184 -25 289 -43 410 -3 22 -6 47 -6 55 0 12 -16
102 -42 240 -16 87 -28 139 -51 231 -15 57 -28 111 -30 119 -2 8 -38 130 -80
270 -74 244 -83 283 -70 340 3 14 8 36 11 50 4 21 11 55 20 95 3 16 62 297 90
435 14 69 27 126 28 127 2 2 208 -184 386 -348 52 -48 104 -96 116 -106 31
-27 315 -287 429 -393 l58 -54 2 -186 c2 -170 7 -255 21 -320 3 -14 8 -36 10
-50 23 -124 92 -266 165 -340 94 -96 196 -114 374 -67 50 13 162 43 250 66
199 52 258 73 365 129 142 75 338 209 455 313 191 169 360 339 513 517 126
147 130 151 136 188 7 38 41 151 56 189 7 17 13 62 13 100 1 55 -4 80 -22 115
-27 52 -89 143 -121 180 -12 14 -29 35 -38 48 -33 44 -363 123 -538 127 -114
3 -241 -18 -304 -50 -35 -18 -30 -23 -107 125 -33 63 -83 155 -112 203 -28 49
-51 91 -51 93 0 3 -8 17 -19 32 -10 15 -67 101 -127 192 -93 142 -155 231
-174 250 -3 3 -37 48 -77 100 -39 52 -82 107 -95 121 -12 14 -32 37 -43 51
-110 140 -461 494 -625 629 -295 245 -536 406 -825 554 -161 82 -253 124 -345
159 -36 14 -63 26 -60 26 9 2 52 10 150 26 133 22 142 23 166 28 12 2 39 7 60
11 22 3 53 8 69 11 29 5 314 62 345 69 391 88 518 120 790 198 388 112 737
234 875 304 174 89 214 151 230 353 18 238 72 396 226 666 148 259 222 414
319 669 23 61 44 119 46 131 2 12 11 41 20 65 56 155 165 611 188 789 3 25 8
54 10 65 9 49 21 134 31 215 3 30 8 71 10 90 32 272 39 423 40 835 0 323 -5
500 -20 650 -1 17 -6 66 -9 110 -4 44 -9 91 -11 105 -2 14 -7 50 -10 80 -3 30
-8 66 -10 80 -2 14 -6 47 -10 73 -4 27 -8 56 -10 65 -1 10 -6 40 -9 67 -10 70
-73 384 -97 480 -11 44 -22 89 -25 100 -17 82 -105 355 -161 500 -71 184 -240
499 -306 570 -6 7 -37 42 -67 77 -30 35 -127 128 -215 206 -88 79 -178 159
-201 180 -22 20 -71 64 -108 97 -109 96 -116 103 -116 122 0 99 -299 278 -782
469 -208 82 -598 217 -598 207 0 -3 -6 -1 -12 4 -7 6 -35 16 -63 22 -27 7 -59
17 -70 22 -79 35 -947 251 -1145 284 -19 3 -80 15 -135 25 -55 11 -113 22
-130 25 -105 18 -206 35 -240 40 -22 3 -67 10 -100 15 -81 12 -115 17 -215 30
-47 6 -96 13 -110 15 -14 2 -54 7 -90 10 -36 3 -76 8 -90 10 -14 2 -54 7 -90
10 -36 3 -85 8 -110 10 -25 2 -74 7 -110 9 -36 3 -101 8 -145 11 -44 3 -116 8
-160 11 -92 6 -852 14 -857 9z"/>
</g>
</svg>
